<svg xmlns="http://www.w3.org/2000/svg" xmlns:xlink="http://www.w3.org/1999/xlink" xmlns:serif="http://www.serif.com/" viewBox="0 0 16 20" version="1.1" xml:space="preserve" style="" x="0px" y="0px" fill-rule="evenodd" clip-rule="evenodd" stroke-linejoin="round" stroke-miterlimit="1.41421"><path d="M11.28,0.48c1.987,0 3.6,1.613 3.6,3.6l0,7.2c0,1.987 -1.613,3.6 -3.6,3.6l-7.2,0c-1.987,0 -3.6,-1.613 -3.6,-3.6l0,-7.2c0,-1.987 1.613,-3.6 3.6,-3.6l7.2,0Zm-3.496,2.572l-1.248,0c-0.172,0 -0.312,0.14 -0.312,0.312c0,0.155 0.113,0.283 0.26,0.308l-1.802,3.758c-0.235,-0.074 -0.486,-0.114 -0.746,-0.114c-1.378,0 -2.496,1.118 -2.496,2.496c0,1.378 1.118,2.496 2.496,2.496c1.378,0 2.496,-1.118 2.496,-2.496c0,-0.896 -0.473,-1.682 -1.182,-2.122l0.318,-0.663l2.159,2.969c0.063,0.085 0.16,0.13 0.259,0.128l0.006,0l0.955,0c0.154,1.231 1.205,2.184 2.477,2.184c1.378,0 2.496,-1.118 2.496,-2.496c0,-1.378 -1.118,-2.496 -2.496,-2.496c-1.272,0 -2.323,0.953 -2.477,2.184l-0.387,0l1.437,-3.016l2.467,0c0.172,0 0.312,-0.14 0.312,-0.312c0,-0.172 -0.14,-0.312 -0.312,-0.312l-2.17,0l0.495,-1.04l0.115,0c0.172,0 0.312,-0.14 0.312,-0.312c0,-0.172 -0.14,-0.312 -0.312,-0.312l-0.832,0c-0.172,0 -0.312,0.14 -0.312,0.312c0,0.172 0.14,0.312 0.312,0.312l0.026,0l-1.475,3.098l-2.343,-2.378l0.894,-1.864l0.61,0c0.172,0 0.312,-0.14 0.312,-0.312c0,-0.172 -0.14,-0.312 -0.312,-0.312Zm2.147,6.448c0.144,-0.692 0.758,-1.213 1.493,-1.213c0.842,0 1.525,0.683 1.525,1.525c0,0.842 -0.683,1.525 -1.525,1.525c-0.735,0 -1.349,-0.521 -1.493,-1.213l1.597,0c0.172,0 0.312,-0.14 0.312,-0.312c0,-0.172 -0.14,-0.312 -0.312,-0.312l-1.597,0Zm-5.105,-0.926c0.384,0.277 0.635,0.728 0.635,1.238c0,0.842 -0.683,1.525 -1.525,1.525c-0.842,0 -1.525,-0.683 -1.525,-1.525c0,-0.842 0.683,-1.525 1.525,-1.525c0.109,0 0.216,0.012 0.319,0.034l-0.6,1.252c-0.075,0.155 -0.009,0.342 0.146,0.416c0.155,0.075 0.342,0.009 0.416,-0.146l0.609,-1.269Zm3.511,-0.056l-0.361,0.758l-2.102,-2.889l0.12,-0.249l2.343,2.38Z"/><text x="0" y="31" fill="#000000" font-size="5px" font-weight="bold" font-family="'Helvetica Neue', Helvetica, Arial-Unicode, Arial, Sans-serif">Created by Sakchai Ruankam</text><text x="0" y="36" fill="#000000" font-size="5px" font-weight="bold" font-family="'Helvetica Neue', Helvetica, Arial-Unicode, Arial, Sans-serif">from the Noun Project</text></svg>